# Wavefront OBJ file automatically generated by Tiled2Unity

# Vertices (Count = 406)
v -1920 -512 0
v -2048 -512 0
v -2048 -384 0
v -1920 -384 0
v -2176 -512 0
v -2176 -384 0
v -2304 -512 0
v -2304 -384 0
v -1792 -640 0
v -1920 -640 0
v -1792 -512 0
v -2048 -640 0
v -2176 -640 0
v -2304 -640 0
v -2432 -640 0
v -2432 -512 0
v -2560 -640 0
v -2560 -512 0
v -2688 -640 0
v -2688 -512 0
v -2816 -640 0
v -2816 -512 0
v -2944 -640 0
v -2944 -512 0
v -3072 -640 0
v -3072 -512 0
v -1536 -768 0
v -1664 -768 0
v -1664 -640 0
v -1536 -640 0
v -1792 -768 0
v -1920 -768 0
v -2304 -768 0
v -2432 -768 0
v -2560 -768 0
v -2944 -768 0
v -3072 -768 0
v -3200 -768 0
v -3200 -640 0
v -1408 -896 0
v -1536 -896 0
v -1408 -768 0
v -1664 -896 0
v -2176 -896 0
v -2304 -896 0
v -2176 -768 0
v -2432 -896 0
v -3072 -896 0
v -3200 -896 0
v -1280 -1024 0
v -1408 -1024 0
v -1280 -896 0
v -1536 -1024 0
v -2048 -1024 0
v -2176 -1024 0
v -2048 -896 0
v -2304 -1024 0
v -2432 -1024 0
v -2560 -1024 0
v -2688 -1024 0
v -2688 -896 0
v -2560 -896 0
v -2816 -1024 0
v -2816 -896 0
v -2944 -1024 0
v -2944 -896 0
v -3072 -1024 0
v -3200 -1024 0
v -3328 -1024 0
v -3328 -896 0
v -1280 -1152 0
v -1408 -1152 0
v -1920 -1152 0
v -2048 -1152 0
v -1920 -1024 0
v -2176 -1152 0
v -2304 -1152 0
v -2432 -1152 0
v -2560 -1152 0
v -2688 -1152 0
v -3072 -1152 0
v -3200 -1152 0
v -3328 -1152 0
v -1152 -1280 0
v -1280 -1280 0
v -1152 -1152 0
v -1920 -1280 0
v -2048 -1280 0
v -2176 -1280 0
v -2304 -1280 0
v -2432 -1280 0
v -3072 -1280 0
v -3200 -1280 0
v -3328 -1280 0
v -1152 -1408 0
v -1280 -1408 0
v -1792 -1408 0
v -1920 -1408 0
v -1792 -1280 0
v -2048 -1408 0
v -2176 -1408 0
v -2304 -1408 0
v -3200 -1408 0
v -3328 -1408 0
v -1152 -1536 0
v -1280 -1536 0
v -1664 -1536 0
v -1792 -1536 0
v -1664 -1408 0
v -1920 -1536 0
v -2176 -1536 0
v -2304 -1536 0
v -2944 -1536 0
v -3072 -1536 0
v -3072 -1408 0
v -2944 -1408 0
v -3200 -1536 0
v -3328 -1536 0
v -3456 -1536 0
v -3456 -1408 0
v -3584 -1536 0
v -3584 -1408 0
v -3712 -1536 0
v -3712 -1408 0
v -3840 -1536 0
v -3840 -1408 0
v -1152 -1664 0
v -1280 -1664 0
v -1536 -1664 0
v -1664 -1664 0
v -1536 -1536 0
v -1792 -1664 0
v -2176 -1664 0
v -2304 -1664 0
v -2688 -1664 0
v -2816 -1664 0
v -2816 -1536 0
v -2688 -1536 0
v -2944 -1664 0
v -3072 -1664 0
v -3200 -1664 0
v -3328 -1664 0
v -3712 -1664 0
v -3840 -1664 0
v -3968 -1664 0
v -3968 -1536 0
v -1152 -1792 0
v -1280 -1792 0
v -1408 -1792 0
v -1536 -1792 0
v -1408 -1664 0
v -1664 -1792 0
v -2048 -1792 0
v -2176 -1792 0
v -2048 -1664 0
v -2304 -1792 0
v -2560 -1792 0
v -2688 -1792 0
v -2560 -1664 0
v -2816 -1792 0
v -3200 -1792 0
v -3328 -1792 0
v -3840 -1792 0
v -3968 -1792 0
v -4096 -1792 0
v -4096 -1664 0
v -1152 -1920 0
v -1280 -1920 0
v -1408 -1920 0
v -1536 -1920 0
v -2048 -1920 0
v -2176 -1920 0
v -2304 -1920 0
v -2432 -1920 0
v -2432 -1792 0
v -2560 -1920 0
v -3200 -1920 0
v -3328 -1920 0
v -3968 -1920 0
v -4096 -1920 0
v -1152 -2048 0
v -1280 -2048 0
v -1408 -2048 0
v -2048 -2048 0
v -2176 -2048 0
v -2304 -2048 0
v -2432 -2048 0
v -3072 -2048 0
v -3200 -2048 0
v -3072 -1920 0
v -3328 -2048 0
v -3968 -2048 0
v -4096 -2048 0
v -4224 -2048 0
v -4224 -1920 0
v -1152 -2176 0
v -1280 -2176 0
v -1408 -2176 0
v -1536 -2176 0
v -1536 -2048 0
v -1664 -2176 0
v -1664 -2048 0
v -1920 -2176 0
v -2048 -2176 0
v -1920 -2048 0
v -2176 -2176 0
v -2304 -2176 0
v -2432 -2176 0
v -3072 -2176 0
v -3200 -2176 0
v -4096 -2176 0
v -4224 -2176 0
v -1024 -2304 0
v -1152 -2304 0
v -1024 -2176 0
v -1280 -2304 0
v -1408 -2304 0
v -1792 -2304 0
v -1920 -2304 0
v -1792 -2176 0
v -2048 -2304 0
v -2176 -2304 0
v -3072 -2304 0
v -3200 -2304 0
v -4096 -2304 0
v -4224 -2304 0
v -1024 -2432 0
v -1152 -2432 0
v -1280 -2432 0
v -1408 -2432 0
v -1536 -2432 0
v -1536 -2304 0
v -1664 -2432 0
v -1792 -2432 0
v -1664 -2304 0
v -1920 -2432 0
v -2048 -2432 0
v -3072 -2432 0
v -3200 -2432 0
v -4096 -2432 0
v -4224 -2432 0
v -896 -2560 0
v -1024 -2560 0
v -896 -2432 0
v -1152 -2560 0
v -1280 -2560 0
v -1408 -2560 0
v -1536 -2560 0
v -1664 -2560 0
v -1792 -2560 0
v -1920 -2560 0
v -2944 -2560 0
v -3072 -2560 0
v -2944 -2432 0
v -3200 -2560 0
v -4096 -2560 0
v -4224 -2560 0
v -896 -2688 0
v -1024 -2688 0
v -1152 -2688 0
v -1280 -2688 0
v -1408 -2688 0
v -1536 -2688 0
v -1664 -2688 0
v -1792 -2688 0
v -1920 -2688 0
v -2944 -2688 0
v -3072 -2688 0
v -3200 -2688 0
v -3968 -2688 0
v -4096 -2688 0
v -3968 -2560 0
v -4224 -2688 0
v -896 -2816 0
v -1024 -2816 0
v -1152 -2816 0
v -1280 -2816 0
v -1408 -2816 0
v -1536 -2816 0
v -1664 -2816 0
v -1792 -2816 0
v -2816 -2816 0
v -2944 -2816 0
v -2816 -2688 0
v -3072 -2816 0
v -3968 -2816 0
v -4096 -2816 0
v -896 -2944 0
v -1024 -2944 0
v -1280 -2944 0
v -1408 -2944 0
v -1536 -2944 0
v -1664 -2944 0
v -1792 -2944 0
v -1920 -2944 0
v -1920 -2816 0
v -2048 -2944 0
v -2048 -2816 0
v -2688 -2944 0
v -2816 -2944 0
v -2688 -2816 0
v -2944 -2944 0
v -3072 -2944 0
v -3840 -2944 0
v -3968 -2944 0
v -3840 -2816 0
v -4096 -2944 0
v -896 -3072 0
v -1024 -3072 0
v -1280 -3072 0
v -1408 -3072 0
v -1536 -3072 0
v -1664 -3072 0
v -1792 -3072 0
v -1920 -3072 0
v -2048 -3072 0
v -2176 -3072 0
v -2176 -2944 0
v -2560 -3072 0
v -2688 -3072 0
v -2560 -2944 0
v -2816 -3072 0
v -2944 -3072 0
v -3072 -3072 0
v -3712 -3072 0
v -3840 -3072 0
v -3712 -2944 0
v -3968 -3072 0
v -896 -3200 0
v -1024 -3200 0
v -1408 -3200 0
v -1536 -3200 0
v -1664 -3200 0
v -1792 -3200 0
v -2048 -3200 0
v -2176 -3200 0
v -2304 -3200 0
v -2304 -3072 0
v -2432 -3200 0
v -2432 -3072 0
v -2560 -3200 0
v -2688 -3200 0
v -2816 -3200 0
v -2944 -3200 0
v -3456 -3200 0
v -3584 -3200 0
v -3584 -3072 0
v -3456 -3072 0
v -3712 -3200 0
v -896 -3328 0
v -1024 -3328 0
v -1152 -3328 0
v -1152 -3200 0
v -1408 -3328 0
v -1536 -3328 0
v -1664 -3328 0
v -1792 -3328 0
v -1920 -3328 0
v -1920 -3200 0
v -2304 -3328 0
v -2432 -3328 0
v -2560 -3328 0
v -2688 -3328 0
v -2816 -3328 0
v -2944 -3328 0
v -3072 -3328 0
v -3072 -3200 0
v -3200 -3328 0
v -3200 -3200 0
v -3328 -3328 0
v -3328 -3200 0
v -3456 -3328 0
v -3584 -3328 0
v -1024 -3456 0
v -1152 -3456 0
v -1280 -3456 0
v -1280 -3328 0
v -1408 -3456 0
v -1664 -3456 0
v -1792 -3456 0
v -1920 -3456 0
v -2048 -3456 0
v -2048 -3328 0
v -2176 -3456 0
v -2176 -3328 0
v -2304 -3456 0
v -2560 -3456 0
v -2688 -3456 0
v -2816 -3456 0
v -1792 -3584 0
v -1920 -3584 0
v -2560 -3584 0
v -2688 -3584 0
v -1920 -3712 0
v -2048 -3712 0
v -2048 -3584 0
v -2176 -3712 0
v -2176 -3584 0
v -2432 -3712 0
v -2560 -3712 0
v -2432 -3584 0
v -2048 -3840 0
v -2176 -3840 0
v -2304 -3840 0
v -2304 -3712 0
v -2432 -3840 0

# Texture cooridinates (Count = 4)
vt 0.1251221 0.9376221
vt 0.2498779 0.9376221
vt 0.2498779 0.9998779
vt 0.1251221 0.9998779

# Normal
vn 0 0 -1

# Groups (Count = 1)

g mesh_0001
f 1/1/1 2/2/1 3/3/1 4/4/1
f 2/1/1 5/2/1 6/3/1 3/4/1
f 5/1/1 7/2/1 8/3/1 6/4/1
f 9/1/1 10/2/1 1/3/1 11/4/1
f 10/1/1 12/2/1 2/3/1 1/4/1
f 13/1/1 14/2/1 7/3/1 5/4/1
f 14/1/1 15/2/1 16/3/1 7/4/1
f 15/1/1 17/2/1 18/3/1 16/4/1
f 17/1/1 19/2/1 20/3/1 18/4/1
f 19/1/1 21/2/1 22/3/1 20/4/1
f 21/1/1 23/2/1 24/3/1 22/4/1
f 23/1/1 25/2/1 26/3/1 24/4/1
f 27/1/1 28/2/1 29/3/1 30/4/1
f 28/1/1 31/2/1 9/3/1 29/4/1
f 31/1/1 32/2/1 10/3/1 9/4/1
f 33/1/1 34/2/1 15/3/1 14/4/1
f 34/1/1 35/2/1 17/3/1 15/4/1
f 36/1/1 37/2/1 25/3/1 23/4/1
f 37/1/1 38/2/1 39/3/1 25/4/1
f 40/1/1 41/2/1 27/3/1 42/4/1
f 41/1/1 43/2/1 28/3/1 27/4/1
f 44/1/1 45/2/1 33/3/1 46/4/1
f 45/1/1 47/2/1 34/3/1 33/4/1
f 48/1/1 49/2/1 38/3/1 37/4/1
f 50/1/1 51/2/1 40/3/1 52/4/1
f 51/1/1 53/2/1 41/3/1 40/4/1
f 54/1/1 55/2/1 44/3/1 56/4/1
f 55/1/1 57/2/1 45/3/1 44/4/1
f 57/1/1 58/2/1 47/3/1 45/4/1
f 59/1/1 60/2/1 61/3/1 62/4/1
f 60/1/1 63/2/1 64/3/1 61/4/1
f 63/1/1 65/2/1 66/3/1 64/4/1
f 65/1/1 67/2/1 48/3/1 66/4/1
f 67/1/1 68/2/1 49/3/1 48/4/1
f 68/1/1 69/2/1 70/3/1 49/4/1
f 71/1/1 72/2/1 51/3/1 50/4/1
f 73/1/1 74/2/1 54/3/1 75/4/1
f 74/1/1 76/2/1 55/3/1 54/4/1
f 77/1/1 78/2/1 58/3/1 57/4/1
f 78/1/1 79/2/1 59/3/1 58/4/1
f 79/1/1 80/2/1 60/3/1 59/4/1
f 81/1/1 82/2/1 68/3/1 67/4/1
f 82/1/1 83/2/1 69/3/1 68/4/1
f 84/1/1 85/2/1 71/3/1 86/4/1
f 87/1/1 88/2/1 74/3/1 73/4/1
f 88/1/1 89/2/1 76/3/1 74/4/1
f 89/1/1 90/2/1 77/3/1 76/4/1
f 90/1/1 91/2/1 78/3/1 77/4/1
f 92/1/1 93/2/1 82/3/1 81/4/1
f 93/1/1 94/2/1 83/3/1 82/4/1
f 95/1/1 96/2/1 85/3/1 84/4/1
f 97/1/1 98/2/1 87/3/1 99/4/1
f 98/1/1 100/2/1 88/3/1 87/4/1
f 100/1/1 101/2/1 89/3/1 88/4/1
f 101/1/1 102/2/1 90/3/1 89/4/1
f 103/1/1 104/2/1 94/3/1 93/4/1
f 105/1/1 106/2/1 96/3/1 95/4/1
f 107/1/1 108/2/1 97/3/1 109/4/1
f 108/1/1 110/2/1 98/3/1 97/4/1
f 111/1/1 112/2/1 102/3/1 101/4/1
f 113/1/1 114/2/1 115/3/1 116/4/1
f 114/1/1 117/2/1 103/3/1 115/4/1
f 117/1/1 118/2/1 104/3/1 103/4/1
f 118/1/1 119/2/1 120/3/1 104/4/1
f 119/1/1 121/2/1 122/3/1 120/4/1
f 121/1/1 123/2/1 124/3/1 122/4/1
f 123/1/1 125/2/1 126/3/1 124/4/1
f 127/1/1 128/2/1 106/3/1 105/4/1
f 129/1/1 130/2/1 107/3/1 131/4/1
f 130/1/1 132/2/1 108/3/1 107/4/1
f 133/1/1 134/2/1 112/3/1 111/4/1
f 135/1/1 136/2/1 137/3/1 138/4/1
f 136/1/1 139/2/1 113/3/1 137/4/1
f 139/1/1 140/2/1 114/3/1 113/4/1
f 141/1/1 142/2/1 118/3/1 117/4/1
f 143/1/1 144/2/1 125/3/1 123/4/1
f 144/1/1 145/2/1 146/3/1 125/4/1
f 147/1/1 148/2/1 128/3/1 127/4/1
f 149/1/1 150/2/1 129/3/1 151/4/1
f 150/1/1 152/2/1 130/3/1 129/4/1
f 153/1/1 154/2/1 133/3/1 155/4/1
f 154/1/1 156/2/1 134/3/1 133/4/1
f 157/1/1 158/2/1 135/3/1 159/4/1
f 158/1/1 160/2/1 136/3/1 135/4/1
f 161/1/1 162/2/1 142/3/1 141/4/1
f 163/1/1 164/2/1 145/3/1 144/4/1
f 164/1/1 165/2/1 166/3/1 145/4/1
f 167/1/1 168/2/1 148/3/1 147/4/1
f 168/1/1 169/2/1 149/3/1 148/4/1
f 169/1/1 170/2/1 150/3/1 149/4/1
f 171/1/1 172/2/1 154/3/1 153/4/1
f 173/1/1 174/2/1 175/3/1 156/4/1
f 174/1/1 176/2/1 157/3/1 175/4/1
f 177/1/1 178/2/1 162/3/1 161/4/1
f 179/1/1 180/2/1 165/3/1 164/4/1
f 181/1/1 182/2/1 168/3/1 167/4/1
f 182/1/1 183/2/1 169/3/1 168/4/1
f 184/1/1 185/2/1 172/3/1 171/4/1
f 185/1/1 186/2/1 173/3/1 172/4/1
f 186/1/1 187/2/1 174/3/1 173/4/1
f 188/1/1 189/2/1 177/3/1 190/4/1
f 189/1/1 191/2/1 178/3/1 177/4/1
f 192/1/1 193/2/1 180/3/1 179/4/1
f 193/1/1 194/2/1 195/3/1 180/4/1
f 196/1/1 197/2/1 182/3/1 181/4/1
f 197/1/1 198/2/1 183/3/1 182/4/1
f 198/1/1 199/2/1 200/3/1 183/4/1
f 199/1/1 201/2/1 202/3/1 200/4/1
f 203/1/1 204/2/1 184/3/1 205/4/1
f 204/1/1 206/2/1 185/3/1 184/4/1
f 206/1/1 207/2/1 186/3/1 185/4/1
f 207/1/1 208/2/1 187/3/1 186/4/1
f 209/1/1 210/2/1 189/3/1 188/4/1
f 211/1/1 212/2/1 194/3/1 193/4/1
f 213/1/1 214/2/1 196/3/1 215/4/1
f 214/1/1 216/2/1 197/3/1 196/4/1
f 216/1/1 217/2/1 198/3/1 197/4/1
f 218/1/1 219/2/1 203/3/1 220/4/1
f 219/1/1 221/2/1 204/3/1 203/4/1
f 221/1/1 222/2/1 206/3/1 204/4/1
f 223/1/1 224/2/1 210/3/1 209/4/1
f 225/1/1 226/2/1 212/3/1 211/4/1
f 227/1/1 228/2/1 214/3/1 213/4/1
f 228/1/1 229/2/1 216/3/1 214/4/1
f 229/1/1 230/2/1 217/3/1 216/4/1
f 230/1/1 231/2/1 232/3/1 217/4/1
f 233/1/1 234/2/1 218/3/1 235/4/1
f 234/1/1 236/2/1 219/3/1 218/4/1
f 236/1/1 237/2/1 221/3/1 219/4/1
f 238/1/1 239/2/1 224/3/1 223/4/1
f 240/1/1 241/2/1 226/3/1 225/4/1
f 242/1/1 243/2/1 227/3/1 244/4/1
f 245/1/1 246/2/1 229/3/1 228/4/1
f 246/1/1 247/2/1 230/3/1 229/4/1
f 247/1/1 248/2/1 231/3/1 230/4/1
f 248/1/1 249/2/1 233/3/1 231/4/1
f 249/1/1 250/2/1 234/3/1 233/4/1
f 250/1/1 251/2/1 236/3/1 234/4/1
f 252/1/1 253/2/1 238/3/1 254/4/1
f 253/1/1 255/2/1 239/3/1 238/4/1
f 256/1/1 257/2/1 241/3/1 240/4/1
f 258/1/1 259/2/1 243/3/1 242/4/1
f 260/1/1 261/2/1 246/3/1 245/4/1
f 261/1/1 262/2/1 247/3/1 246/4/1
f 263/1/1 264/2/1 249/3/1 248/4/1
f 264/1/1 265/2/1 250/3/1 249/4/1
f 265/1/1 266/2/1 251/3/1 250/4/1
f 267/1/1 268/2/1 253/3/1 252/4/1
f 268/1/1 269/2/1 255/3/1 253/4/1
f 270/1/1 271/2/1 256/3/1 272/4/1
f 271/1/1 273/2/1 257/3/1 256/4/1
f 274/1/1 275/2/1 259/3/1 258/4/1
f 276/1/1 277/2/1 261/3/1 260/4/1
f 277/1/1 278/2/1 262/3/1 261/4/1
f 279/1/1 280/2/1 264/3/1 263/4/1
f 280/1/1 281/2/1 265/3/1 264/4/1
f 282/1/1 283/2/1 267/3/1 284/4/1
f 283/1/1 285/2/1 268/3/1 267/4/1
f 286/1/1 287/2/1 271/3/1 270/4/1
f 288/1/1 289/2/1 275/3/1 274/4/1
f 290/1/1 291/2/1 278/3/1 277/4/1
f 292/1/1 293/2/1 280/3/1 279/4/1
f 293/1/1 294/2/1 281/3/1 280/4/1
f 294/1/1 295/2/1 296/3/1 281/4/1
f 295/1/1 297/2/1 298/3/1 296/4/1
f 299/1/1 300/2/1 282/3/1 301/4/1
f 300/1/1 302/2/1 283/3/1 282/4/1
f 302/1/1 303/2/1 285/3/1 283/4/1
f 304/1/1 305/2/1 286/3/1 306/4/1
f 305/1/1 307/2/1 287/3/1 286/4/1
f 308/1/1 309/2/1 289/3/1 288/4/1
f 310/1/1 311/2/1 291/3/1 290/4/1
f 311/1/1 312/2/1 292/3/1 291/4/1
f 312/1/1 313/2/1 293/3/1 292/4/1
f 313/1/1 314/2/1 294/3/1 293/4/1
f 315/1/1 316/2/1 297/3/1 295/4/1
f 316/1/1 317/2/1 318/3/1 297/4/1
f 319/1/1 320/2/1 299/3/1 321/4/1
f 320/1/1 322/2/1 300/3/1 299/4/1
f 323/1/1 324/2/1 303/3/1 302/4/1
f 325/1/1 326/2/1 304/3/1 327/4/1
f 326/1/1 328/2/1 305/3/1 304/4/1
f 329/1/1 330/2/1 309/3/1 308/4/1
f 331/1/1 332/2/1 312/3/1 311/4/1
f 332/1/1 333/2/1 313/3/1 312/4/1
f 333/1/1 334/2/1 314/3/1 313/4/1
f 335/1/1 336/2/1 317/3/1 316/4/1
f 336/1/1 337/2/1 338/3/1 317/4/1
f 337/1/1 339/2/1 340/3/1 338/4/1
f 339/1/1 341/2/1 319/3/1 340/4/1
f 341/1/1 342/2/1 320/3/1 319/4/1
f 343/1/1 344/2/1 323/3/1 322/4/1
f 345/1/1 346/2/1 347/3/1 348/4/1
f 346/1/1 349/2/1 325/3/1 347/4/1
f 350/1/1 351/2/1 330/3/1 329/4/1
f 351/1/1 352/2/1 353/3/1 330/4/1
f 354/1/1 355/2/1 332/3/1 331/4/1
f 355/1/1 356/2/1 333/3/1 332/4/1
f 356/1/1 357/2/1 334/3/1 333/4/1
f 357/1/1 358/2/1 359/3/1 334/4/1
f 360/1/1 361/2/1 339/3/1 337/4/1
f 361/1/1 362/2/1 341/3/1 339/4/1
f 362/1/1 363/2/1 342/3/1 341/4/1
f 363/1/1 364/2/1 343/3/1 342/4/1
f 364/1/1 365/2/1 344/3/1 343/4/1
f 365/1/1 366/2/1 367/3/1 344/4/1
f 366/1/1 368/2/1 369/3/1 367/4/1
f 368/1/1 370/2/1 371/3/1 369/4/1
f 370/1/1 372/2/1 345/3/1 371/4/1
f 372/1/1 373/2/1 346/3/1 345/4/1
f 374/1/1 375/2/1 352/3/1 351/4/1
f 375/1/1 376/2/1 377/3/1 352/4/1
f 376/1/1 378/2/1 354/3/1 377/4/1
f 379/1/1 380/2/1 357/3/1 356/4/1
f 380/1/1 381/2/1 358/3/1 357/4/1
f 381/1/1 382/2/1 383/3/1 358/4/1
f 382/1/1 384/2/1 385/3/1 383/4/1
f 384/1/1 386/2/1 360/3/1 385/4/1
f 387/1/1 388/2/1 363/3/1 362/4/1
f 388/1/1 389/2/1 364/3/1 363/4/1
f 390/1/1 391/2/1 381/3/1 380/4/1
f 392/1/1 393/2/1 388/3/1 387/4/1
f 394/1/1 395/2/1 396/3/1 391/4/1
f 395/1/1 397/2/1 398/3/1 396/4/1
f 399/1/1 400/2/1 392/3/1 401/4/1
f 402/1/1 403/2/1 397/3/1 395/4/1
f 403/1/1 404/2/1 405/3/1 397/4/1
f 404/1/1 406/2/1 399/3/1 405/4/1

